HIERARCHY
ROOT Hips
{
	OFFSET	0.00	0.00	0.00
	CHANNELS 6 Xposition Yposition Zposition Zrotation Xrotation Yrotation
	JOINT LeftUpLeg
	{
		OFFSET	 0.126116	-0.014019	-0.065224
		CHANNELS 3 Zrotation Xrotation Yrotation
		JOINT LeftLeg
		{
			OFFSET	 0.000000	 0.000000	 0.569914
			CHANNELS 3 Zrotation Xrotation Yrotation
			JOINT LeftFoot
			{
				OFFSET	 0.000000	 0.000000	 0.544423
				CHANNELS 3 Zrotation Xrotation Yrotation
				JOINT LeftToeBase
				{
					OFFSET	 0.000000	 0.000000	 0.207117
					CHANNELS 3 Zrotation Xrotation Yrotation
					End Site
					{
						OFFSET	 0.000000	 0.000000	 0.207117
					}
				}
			}
		}
	}
	JOINT RightUpLeg
	{
		OFFSET	-0.124023	-0.008373	-0.065224
		CHANNELS 3 Zrotation Xrotation Yrotation
		JOINT RightLeg
		{
			OFFSET	 0.000000	 0.000000	 0.570047
			CHANNELS 3 Zrotation Xrotation Yrotation
			JOINT RightFoot
			{
				OFFSET	 0.000000	 0.000000	 0.544354
				CHANNELS 3 Zrotation Xrotation Yrotation
				JOINT RightToeBase
				{
					OFFSET	 0.000000	 0.000000	 0.207540
					CHANNELS 3 Zrotation Xrotation Yrotation
					End Site
					{
						OFFSET	 0.000000	 0.000000	 0.207540
					}
				}
			}
		}
	}
	JOINT Spine
	{
		OFFSET	 0.000184	-0.007763	 0.117403
		CHANNELS 3 Zrotation Xrotation Yrotation
		JOINT Spine1
		{
			OFFSET	 0.000000	 0.000000	 0.137269
			CHANNELS 3 Zrotation Xrotation Yrotation
			JOINT Spine2
			{
				OFFSET	 0.000000	 0.000000	 0.156879
				CHANNELS 3 Zrotation Xrotation Yrotation
				JOINT LeftShoulder
				{
					OFFSET	 0.080501	-0.002496	 0.160144
					CHANNELS 3 Zrotation Xrotation Yrotation
					JOINT LeftArm
					{
						OFFSET	 0.000000	 0.000000	 0.164363
						CHANNELS 3 Zrotation Xrotation Yrotation
						JOINT LeftForeArm
						{
							OFFSET	 0.000000	 0.000000	 0.364576
							CHANNELS 3 Zrotation Xrotation Yrotation
							JOINT LeftHand
							{
								OFFSET	 0.000000	 0.000000	 0.360812
								CHANNELS 3 Zrotation Xrotation Yrotation
								JOINT LeftHandIndex1
								{
									OFFSET	 0.000000	 0.000000	 0.086006
									CHANNELS 3 Zrotation Xrotation Yrotation
									JOINT LeftHandIndex2
									{
										OFFSET	 0.000000	 0.000000	 0.047236
										CHANNELS 3 Zrotation Xrotation Yrotation
										JOINT LeftHandIndex3
										{
											OFFSET	-0.004284	-0.000551	 0.038166
											CHANNELS 3 Zrotation Xrotation Yrotation
											End Site
											{
												OFFSET	-0.004284	-0.000551	 0.038166
											}
										}
									}
								}
							}
						}
					}
				}
				JOINT Neck
				{
					OFFSET	 0.000000	 0.000000	 0.176489
					CHANNELS 3 Zrotation Xrotation Yrotation
					JOINT Head
					{
						OFFSET	 0.000000	-0.001747	 0.077940
						CHANNELS 3 Zrotation Xrotation Yrotation
						End Site
						{
							OFFSET	 0.000000	-0.001747	 0.077940
						}
					}
				}
				JOINT RightShoulder
				{
					OFFSET	-0.080363	 0.000306	 0.159706
					CHANNELS 3 Zrotation Xrotation Yrotation
					JOINT RightArm
					{
						OFFSET	 0.000000	 0.000000	 0.164196
						CHANNELS 3 Zrotation Xrotation Yrotation
						JOINT RightForeArm
						{
							OFFSET	 0.000000	 0.000000	 0.365611
							CHANNELS 3 Zrotation Xrotation Yrotation
							JOINT RightHand
							{
								OFFSET	 0.000000	 0.000000	 0.360648
								CHANNELS 3 Zrotation Xrotation Yrotation
								JOINT RightHandIndex1
								{
									OFFSET	 0.000000	 0.000000	 0.069977
									CHANNELS 3 Zrotation Xrotation Yrotation
									JOINT RightHandIndex2
									{
										OFFSET	 0.000000	 0.000000	 0.052305
										CHANNELS 3 Zrotation Xrotation Yrotation
										JOINT RightHandIndex3
										{
											OFFSET	 0.009002	-0.000782	 0.042196
											CHANNELS 3 Zrotation Xrotation Yrotation
											End Site
											{
												OFFSET	 0.009002	-0.000782	 0.042196
											}
										}
									}
								}
							}
						}
					}
				}
			}
		}
	}
}
MOTION
Frames:    9
Frame Time: 0.03333334
 0.658829	 7.033133	 0.369853	-10.183580	 3.993325	-0.784247	 9.867454	 17.156550	-176.313700	-6.077505	-11.623920	 1.539959	-19.314030	 89.234340	 22.790600	-2.297042	 40.090250	-0.278055	 4.091939	-45.838930	 179.545100	-0.821800	-43.480470	 3.160164	-177.274600	 83.501460	-178.621400	 2.404670	 21.526240	-0.142640	-3.701093	 2.121587	 2.740947	-5.543212	-5.286623	 0.757297	-6.306943	-9.190546	-1.550373	-91.776180	 78.527400	 180.000000	 41.483520	 62.056480	-56.707420	-6.737632	-4.582937	-27.826510	 5.156384	 2.145045	-5.366107	-3.812334	 37.924440	-2.927599	-2.450526	 36.184240	 0.754587	-1.378229	 35.397820	-2.634230	-0.156729	 4.739968	-2.344786	-1.423454	-23.141310	-3.133212	 89.782090	 78.203830	-180.000000	-31.342930	 72.902600	 35.410470	 3.910341	-6.575852	 20.209880	-14.947150	 0.931188	 9.527844	 6.437017	 35.671460	-0.771858	 2.830251	 35.756010	-7.813440	-2.350882	 35.473990	 5.254307
 0.655307	 7.009177	 0.364941	-9.574613	 4.091098	-1.041783	 9.470934	 18.129110	-176.289600	-5.765545	-11.624740	 1.534242	-10.892970	 89.026630	 14.336680	-2.278082	 41.662730	-0.321137	 4.468533	-45.725090	-179.798600	-0.257443	-42.403600	 3.598861	-176.401200	 84.410260	-178.899900	 2.391319	 26.741330	-0.035261	-3.828098	 2.025900	 2.734728	-5.688365	-5.371101	 0.668466	-6.382462	-9.197504	-1.607018	-91.776180	 78.527400	 180.000000	 42.422190	 62.234990	-57.724250	-6.424025	-4.588033	-26.735340	 5.452752	 2.135208	-5.363408	-3.812334	 37.924440	-2.927599	-2.450526	 36.184240	 0.754587	-1.378229	 35.397820	-2.634230	-0.261240	 5.006615	-2.307141	-1.512351	-23.544350	-3.169109	 89.782090	 78.203890	-180.000000	-30.432900	 73.159930	 33.977800	 3.866395	-6.488801	 19.706270	-15.097390	 0.926897	 9.524732	 6.437017	 35.671460	-0.771858	 2.830251	 35.756010	-7.813440	-2.350882	 35.473990	 5.254307
 0.647689	 6.965995	 0.364638	-8.758488	 4.281938	-1.305681	 8.951731	 19.854170	-176.571000	-5.147097	-11.623340	 1.545149	-0.897584	 88.269350	 4.404306	-2.241260	 44.313030	-0.397962	 4.993824	-45.214940	-178.984200	 0.370886	-42.184840	 4.229226	-175.526800	 86.033650	-179.135600	 2.375590	 30.250760	 0.040810	-4.036319	 1.809112	 2.566070	-5.900452	-5.477197	 0.480059	-6.470624	-9.141800	-1.687647	-91.776180	 78.527400	-180.000000	 43.870250	 62.980700	-59.039070	-6.190268	-4.559171	-24.716330	 5.981458	 2.114535	-5.357184	-3.812334	 37.924440	-2.927599	-2.450526	 36.184240	 0.754587	-1.378229	 35.397820	-2.634230	-0.436821	 5.200913	-2.279621	-1.640498	-23.742870	-3.120727	 89.782090	 78.203830	-180.000000	-29.263160	 73.666730	 32.221320	 3.882532	-6.381136	 18.979760	-15.379680	 0.914847	 9.515311	 6.437017	 35.671460	-0.771858	 2.830251	 35.756010	-7.813440	-2.350882	 35.473990	 5.254307
 0.639921	 6.926124	 0.362239	-8.171735	 4.477869	-1.455298	 8.620532	 21.388580	-177.043500	-4.524926	-11.619600	 1.573155	 3.227103	 86.841730	 0.465861	-2.192423	 47.239060	-0.490062	 5.325275	-44.418360	-178.475200	 1.285436	-43.086480	 5.123103	-175.025500	 87.692600	-178.963200	 2.381281	 29.124130	 0.015988	-4.228485	 1.551152	 2.303944	-6.060549	-5.627240	 0.290832	-6.488135	-9.112970	-1.761010	-91.776180	 78.527400	 180.000000	 44.847600	 64.025950	-59.570440	-6.266440	-4.504284	-22.947180	 6.449196	 2.089811	-5.349092	-3.812334	 37.924440	-2.927599	-2.450526	 36.184240	 0.754587	-1.378229	 35.397820	-2.634230	-0.582894	 5.059025	-2.211583	-1.722010	-23.541150	-2.964882	 89.782140	 78.203830	 180.000000	-28.091230	 74.144650	 30.584510	 3.995291	-6.309093	 18.465710	-15.605200	 0.904416	 9.506549	 6.437017	 35.671460	-0.771858	 2.830251	 35.756010	-7.813440	-2.350882	 35.473990	 5.254307
 0.628992	 6.873865	 0.362708	-7.667281	 4.468770	-1.438044	 8.455566	 23.284930	-177.978500	-3.667289	-11.610680	 1.638595	 4.906424	 83.589100	-0.736129	-2.112182	 51.090050	-0.625961	 4.758687	-43.224490	-178.811000	 4.596757	-44.893650	 7.456603	 6.780621	 89.041410	 0.959002	 2.373210	 30.687410	 0.050534	-4.431866	 1.249435	 1.638691	-6.151919	-5.880567	 0.061581	-6.388386	-9.198359	-1.823761	-91.776180	 78.527400	-180.000000	 45.333150	 65.827660	-58.912130	-6.714055	-4.415603	-20.904490	 7.021801	 2.054849	-5.336691	-3.812334	 37.924440	-2.927599	-2.450526	 36.184240	 0.754587	-1.378229	 35.397820	-2.634230	-0.765140	 4.835385	-2.081924	-1.816199	-23.127210	-2.687898	 89.782120	 78.203870	 180.000000	-26.351080	 74.697430	 28.191560	 4.209767	-6.226493	 17.964400	-15.801550	 0.895050	 9.498897	 6.437017	 35.671460	-0.771858	 2.830251	 35.756010	-7.813440	-2.350882	 35.473990	 5.254307
 0.617470	 6.820943	 0.365829	-7.478997	 4.364273	-1.315602	 8.624072	 25.099310	-178.941500	-3.151104	-11.602040	 1.699122	 4.907039	 78.310180	-0.108958	-2.059132	 53.185430	-0.708735	 3.863478	-41.985830	-179.518800	 6.524299	-46.627650	 8.705993	 4.967684	 86.737520	 3.362170	 2.371955	 30.911490	 0.055562	-4.344962	 0.791015	 0.950591	-5.997166	-6.080219	-0.184645	-6.376885	-9.272610	-1.706178	-91.776180	 78.527380	-180.000000	 44.825430	 67.960240	-56.932560	-7.694592	-4.279653	-19.290760	 7.369441	 2.024055	-5.325248	-3.812334	 37.924440	-2.927599	-2.450526	 36.184240	 0.754587	-1.378229	 35.397820	-2.634230	-0.929783	 4.763558	-1.930903	-1.866206	-22.857430	-2.338611	 89.782100	 78.203870	-180.000000	-24.813600	 75.126160	 26.082460	 4.416016	-6.159726	 17.616880	-15.915880	 0.889425	 9.494809	 6.437017	 35.671460	-0.771858	 2.830251	 35.756010	-7.813440	-2.350882	 35.473990	 5.254307
 0.603674	 6.762144	 0.371367	-7.371761	 4.290366	-1.379087	 8.989451	 26.827040	-179.760700	-3.397438	-11.607590	 1.660030	 4.128821	 70.094060	 1.085602	-2.073508	 52.646300	-0.686744	 3.489995	-40.248790	 179.870800	 6.075716	-48.175100	 8.463828	 5.037846	 85.656710	 2.558516	 2.378718	 29.646640	 0.027446	-4.009747	-0.034173	 0.653537	-5.680369	-6.167161	-0.346525	-6.432411	-9.099224	-1.468404	-91.776180	 78.527400	-180.000000	 43.025440	 70.215390	-53.053700	-9.117237	-4.076443	-18.211600	 7.292200	 2.002932	-5.319238	-3.812334	 37.924440	-2.927599	-2.450526	 36.184240	 0.754587	-1.378229	 35.397820	-2.634230	-0.972496	 4.697115	-1.869687	-1.848646	-22.355800	-2.063850	 89.782090	 78.203830	-180.000000	-24.170260	 75.418880	 25.142380	 4.477433	-6.130130	 17.390080	-16.035390	 0.882708	 9.489127	 6.437017	 35.671460	-0.771858	 2.830251	 35.756010	-7.813440	-2.350882	 35.473990	 5.254307
 0.591115	 6.709955	 0.377683	-7.163721	 4.105137	-1.445140	 9.188435	 28.291250	 179.379100	-4.112191	-11.569710	 1.474344	 3.702977	 60.852530	 1.215966	-2.076728	 52.522610	-0.681775	 3.103046	-37.743690	 179.358100	 5.782057	-48.943400	 8.177556	 4.949478	 85.837310	 2.189363	 2.390218	 27.035990	-0.029009	-3.872045	-0.247363	 0.544545	-5.510672	-6.098403	-0.443086	-6.217424	-8.668403	-1.383625	-91.776180	 78.527400	 180.000000	 40.332180	 71.630870	-47.913930	-10.143130	-3.893872	-17.992530	 6.833737	 1.997500	-5.320668	-3.812334	 37.924440	-2.927599	-2.450526	 36.184240	 0.754587	-1.378229	 35.397820	-2.634230	-0.961885	 4.642861	-1.855790	-1.833663	-21.427230	-1.887903	 89.782120	 78.203870	 180.000000	-24.118440	 75.472720	 24.884860	 4.390782	-6.139761	 17.369750	-16.083520	 0.881722	 9.487787	 6.437017	 35.671460	-0.771858	 2.830251	 35.756010	-7.813440	-2.350882	 35.473990	 5.254307
 0.573507	 6.658295	 0.388827	-6.604545	 3.119683	-1.081551	 6.894233	 19.430810	 177.361800	-2.914121	-31.594400	 0.674844	 1.592678	 57.043880	 0.601938	-2.170867	 48.373050	-0.528153	 2.241321	-33.666780	 178.367000	 5.893623	-48.996620	 7.779496	 5.594253	 87.451620	 1.255918	 2.398629	 24.430450	-0.083548	-4.084501	 0.330710	 0.094600	-5.557460	-5.900049	-0.619950	-5.774678	-8.127139	-1.472921	-91.776180	 78.527400	-180.000000	 37.332410	 72.106370	-42.120690	-10.256070	-3.800601	-18.272210	 6.409693	 2.000074	-5.324107	-3.812334	 37.924440	-2.927599	-2.450526	 36.184240	 0.754587	-1.378229	 35.397820	-2.634230	-1.059539	 4.580834	-1.738918	-1.942857	-20.068840	-1.914608	 89.782140	 78.203830	 180.000000	-24.779000	 75.244930	 25.383270	 4.393146	-6.246216	 18.045760	-15.787270	 0.893842	 9.498603	 6.437017	 35.671460	-0.771858	 2.830251	 35.756010	-7.813440	-2.350882	 35.473990	 5.254307
